<?xml version="1.0" encoding="utf-8"?>
<!-- Generator: Adobe Illustrator 24.1.1, SVG Export Plug-In . SVG Version: 6.00 Build 0)  -->
<svg version="1.1" id="Layer_1" xmlns="http://www.w3.org/2000/svg" xmlns:xlink="http://www.w3.org/1999/xlink" x="0px" y="0px"
	 viewBox="0 0 512 512" style="enable-background:new 0 0 512 512;" xml:space="preserve">
<style type="text/css">
	.st0{fill-rule:evenodd;clip-rule:evenodd;fill:#1D1D1D;}
</style>
<g>
	<path class="st0" d="M465.45,259.97L512,213.42c-86.82-86.82-206.43-119.86-318.84-100.3l60.05,60.02
		C330,172.69,407.05,201.56,465.45,259.97z M418.91,306.51c-25.14-25.14-54.93-43.05-86.57-54.23l70.27,70.3L418.91,306.51z
		 M186.18,399.6L256,469.42l69.82-69.82C287.41,360.97,224.82,360.97,186.18,399.6z M56.09,42.13L23.27,74.94l70.98,70.98
		c-33.98,17-65.86,39.34-94.25,67.5l46.55,46.55c28.61-28.64,61.66-50.27,97.05-64.7l52.14,52.14c-37.7,10-73.09,29.8-102.64,59.11
		l46.55,46.55c31.41-31.41,72.39-47.48,113.8-47.93L418.2,469.88l32.82-32.8L56.09,42.13z"/>
</g>
</svg>
