<?xml version="1.0" standalone="no"?>
<!DOCTYPE svg PUBLIC "-//W3C//DTD SVG 20010904//EN"
 "http://www.w3.org/TR/2001/REC-SVG-20010904/DTD/svg10.dtd">
<svg version="1.0" xmlns="http://www.w3.org/2000/svg"
 width="802.000000pt" height="663.000000pt" viewBox="0 0 802.000000 663.000000"
 preserveAspectRatio="xMidYMid meet">

<g transform="translate(0.000000,663.000000) scale(0.100000,-0.100000)"
fill="#000000" stroke="none">
<path d="M3348 6579 c-113 -14 -295 -62 -395 -105 -436 -186 -742 -550 -851
-1007 -24 -103 -26 -128 -26 -327 0 -200 2 -222 26 -312 68 -251 201 -500 561
-1053 204 -312 390 -625 374 -625 -3 0 -73 -7 -158 -15 -1017 -100 -1846 -364
-2359 -751 -111 -84 -258 -232 -319 -323 -192 -283 -195 -592 -9 -879 103
-157 321 -352 541 -482 552 -328 1342 -541 2292 -620 215 -18 777 -24 1020
-11 914 49 1709 232 2305 530 256 128 427 249 586 412 193 199 277 384 277
604 0 126 -21 214 -78 330 -57 116 -121 199 -242 316 -359 343 -976 611 -1768
768 -306 61 -590 97 -987 126 -49 4 -88 9 -88 11 0 25 183 328 405 669 215
331 282 446 386 660 129 266 163 404 163 655 -1 237 -46 435 -143 627 -247
492 -729 793 -1291 808 -80 2 -180 0 -222 -6z m307 -854 c144 -31 271 -116
352 -238 69 -102 97 -195 97 -317 -1 -162 -52 -288 -164 -400 -191 -192 -485
-224 -710 -79 -372 240 -340 794 57 989 115 57 239 72 368 45z m784 -2646
c1326 -133 2366 -586 2654 -1154 95 -189 98 -408 8 -602 -93 -198 -312 -415
-583 -576 -551 -328 -1324 -538 -2278 -617 -206 -18 -784 -24 -1015 -11 -1031
56 -1922 286 -2504 646 -246 152 -451 355 -544 540 -98 195 -98 425 0 620 117
230 373 456 725 640 531 276 1241 457 2091 531 l77 6 80 -163 c44 -90 80 -169
80 -175 0 -7 -43 -13 -117 -17 -472 -26 -1037 -143 -1418 -294 -550 -218 -844
-501 -845 -814 0 -166 56 -285 205 -435 140 -141 290 -239 535 -347 957 -422
2563 -473 3670 -115 833 269 1211 706 984 1139 -159 303 -614 563 -1267 724
-330 81 -575 116 -1040 150 -105 8 -105 -12 1 204 l76 153 116 -7 c63 -3 202
-15 309 -26z m-1162 -424 c13 -33 44 -117 68 -187 l44 -128 -27 0 c-120 -1
-410 -37 -602 -76 -425 -87 -763 -259 -858 -438 -42 -80 -43 -196 -2 -276 116
-227 569 -419 1175 -497 176 -23 797 -26 965 -5 490 61 870 183 1075 345 84
66 121 112 152 186 122 297 -274 582 -980 706 -129 23 -397 52 -532 57 -54 3
-60 5 -57 23 5 24 83 243 112 310 l20 48 123 -7 c736 -42 1432 -219 1853 -471
239 -144 395 -311 446 -478 26 -88 22 -214 -11 -299 -158 -410 -891 -755
-1861 -877 -290 -37 -441 -45 -795 -46 -372 0 -537 10 -845 51 -754 100 -1363
333 -1660 634 -91 93 -138 161 -172 256 -30 82 -29 215 1 299 72 199 271 382
589 540 367 183 873 313 1437 370 329 33 311 35 342 -40z m735 -361 c441 -43
817 -154 1043 -307 261 -177 275 -398 38 -577 -532 -403 -1953 -480 -2758
-151 -201 83 -369 210 -417 317 -30 66 -30 152 0 218 30 65 138 169 237 228
256 150 691 260 1124 284 l119 7 15 -54 c26 -91 57 -212 54 -215 -1 -1 -51 -7
-112 -14 -270 -28 -476 -98 -587 -198 -52 -47 -68 -80 -68 -141 0 -62 39 -118
120 -173 261 -176 902 -221 1310 -92 207 65 331 166 330 270 -1 121 -161 234
-415 295 -102 24 -295 49 -377 49 -32 0 -58 1 -58 3 0 1 16 62 35 136 19 74
35 135 35 137 0 4 197 -8 332 -22z m-533 -296 c4 -13 18 -77 31 -143 12 -66
26 -123 29 -127 4 -5 20 58 35 138 18 93 34 148 42 151 23 8 261 -16 361 -37
188 -39 315 -93 394 -167 63 -59 77 -99 54 -159 -90 -236 -790 -357 -1315
-228 -227 56 -390 168 -390 268 0 144 270 275 646 315 44 5 85 9 92 10 7 0 16
-9 21 -21z"/>
</g>
</svg>
