<svg version="1.1" id="Layer_1" xmlns="http://www.w3.org/2000/svg" xmlns:xlink="http://www.w3.org/1999/xlink" x="0px" y="0px"
	 width="100%" viewBox="0 0 512 512" enable-background="new 0 0 512 512" xml:space="preserve">
<path fill="#000000" opacity="1.000000" stroke="none" 
	d="
M1.000000,127.000000 
	C1.000000,126.250000 1.000000,125.500000 1.344606,124.293953 
	C6.469981,116.773438 11.232515,109.696548 16.034798,102.646736 
	C33.284023,77.324654 50.597786,52.046204 67.734535,26.648281 
	C69.703148,23.730663 71.937096,23.478476 74.717918,24.326801 
	C81.763123,26.476038 88.703995,28.995071 95.807381,30.920603 
	C117.549179,36.814201 139.587494,41.625446 162.091904,42.760803 
	C175.014954,43.412769 188.182739,42.557686 201.018066,40.777874 
	C217.947540,38.430340 233.333572,31.847948 245.477356,19.105484 
	C246.403717,18.133474 247.895355,17.077011 249.105713,17.098581 
	C257.888092,17.255102 267.622711,14.388660 273.665375,24.142921 
	C273.751526,24.281971 273.872864,24.409504 274.003021,24.509544 
	C290.406403,37.115334 309.515564,41.846397 329.644897,42.862213 
	C339.018585,43.335243 348.486511,42.605732 357.875214,41.920853 
	C366.641113,41.281410 375.547394,40.788319 384.058716,38.802700 
	C402.493317,34.502056 420.722626,29.317106 439.016022,24.419580 
	C442.107361,23.591961 444.326019,23.730366 446.398071,26.808252 
	C464.580414,53.816750 482.902527,80.731377 501.246155,107.630905 
	C505.029602,113.179001 509.075226,118.548302 513.000000,124.000000 
	C513.000000,124.750000 513.000000,125.500000 512.588013,126.625000 
	C496.758484,129.805206 484.390076,137.787689 475.064789,150.102036 
	C460.392578,169.477142 458.988342,191.887817 462.159546,214.809982 
	C464.081238,228.700607 467.722412,242.345627 469.939606,256.205200 
	C472.352844,271.290131 474.923004,286.444855 475.771027,301.661346 
	C476.848328,320.991547 475.464203,340.273315 471.139832,359.360962 
	C465.290436,385.180145 454.097717,407.723389 434.603302,426.004822 
	C419.014343,440.623779 400.789459,450.544617 380.980774,458.069672 
	C353.060486,468.676239 323.568726,473.267639 294.917175,481.057343 
	C285.467255,483.626587 275.565887,485.984955 268.452393,493.144897 
	C264.801605,496.819519 261.218201,497.233002 256.839417,497.013519 
	C255.177567,496.930237 253.457520,497.250061 251.856842,496.926636 
	C250.377777,496.627838 248.883881,495.910645 247.641891,495.031219 
	C244.963043,493.134369 242.666855,490.600037 239.818832,489.055206 
	C223.170471,480.024719 204.521683,477.385315 186.452103,473.135956 
	C158.578659,466.581085 130.948090,459.683411 105.745537,445.368713 
	C84.069740,433.057220 66.751648,416.451691 55.146538,394.366913 
	C43.496956,372.197479 39.149643,348.046509 38.093487,323.311066 
	C37.306847,304.887634 38.675072,286.529419 41.975677,268.338867 
	C44.804470,252.748581 47.171722,237.069305 50.276825,221.536072 
	C52.803211,208.897858 53.801708,196.374710 52.097908,183.516251 
	C49.561703,164.375671 41.290485,148.719528 25.663181,137.214569 
	C18.315222,131.804947 10.155865,128.147049 1.000000,127.000000 
M233.605499,445.955780 
	C238.277969,447.624847 242.866821,449.613434 247.648590,450.864868 
	C251.697357,451.924500 255.052597,455.939941 259.995270,453.542328 
	C280.166870,443.757263 302.223724,440.287354 323.725677,435.143616 
	C345.960327,429.824677 368.072571,424.396576 388.248260,413.238617 
	C399.721588,406.893402 410.081818,399.044769 417.935852,388.345642 
	C432.171967,368.952667 437.379547,346.547638 437.760956,323.141663 
	C438.017212,307.416321 436.552979,291.593018 434.824036,275.927704 
	C433.480804,263.757263 430.355011,251.793549 428.359772,239.682236 
	C426.355316,227.514786 424.110077,215.329208 423.164307,203.059555 
	C421.939056,187.163757 423.985504,171.371201 429.139496,156.256317 
	C432.501862,146.395645 436.886627,136.857422 443.745911,128.735458 
	C448.484406,123.124680 453.153778,117.455513 457.930756,111.720299 
	C448.671356,98.136925 439.390137,84.369186 429.864258,70.772850 
	C428.864685,69.346184 426.220398,67.908577 424.680573,68.211472 
	C414.270630,70.259193 404.040955,73.321861 393.583984,75.008614 
	C378.338501,77.467781 362.992798,79.566689 347.608154,80.803886 
	C338.445496,81.540733 329.088928,80.737106 319.888885,79.880859 
	C311.528870,79.102791 303.133820,77.844109 294.985199,75.852310 
	C282.637604,72.834152 270.927185,68.045982 260.094025,61.168392 
	C258.508850,60.162037 255.118896,60.318977 253.460175,61.362339 
	C231.858337,74.950409 207.883591,79.929771 182.883591,80.891853 
	C173.993210,81.233994 165.046463,80.478783 156.141129,79.956978 
	C148.131119,79.487633 140.015610,79.320763 132.172272,77.831902 
	C117.948219,75.131813 103.912468,71.450340 89.737343,68.467331 
	C88.113731,68.125664 85.300842,69.065414 84.393921,70.359970 
	C74.703850,84.191841 65.287048,98.215164 55.689419,112.341675 
	C67.780342,123.264084 77.018219,135.996902 82.884338,150.841095 
	C91.219284,171.932632 92.917221,194.037048 89.833405,216.283722 
	C87.283974,234.675278 83.133896,252.839630 80.034286,271.162354 
	C78.326294,281.258911 76.607697,291.443604 76.166748,301.643555 
	C75.499100,317.087158 75.858414,332.536713 78.912773,347.866943 
	C82.843613,367.596283 90.934174,385.138000 105.647774,398.932281 
	C119.010277,411.459900 135.253464,419.501343 152.631149,424.898438 
	C166.109833,429.084595 179.844391,432.472198 193.531128,435.955780 
	C206.626511,439.288879 219.806931,442.287842 233.605499,445.955780 
z"/>
<path fill="#FFFFFF" opacity="1.000000" stroke="none" 
	d="
M1.000000,127.468658 
	C10.155865,128.147049 18.315222,131.804947 25.663181,137.214569 
	C41.290485,148.719528 49.561703,164.375671 52.097908,183.516251 
	C53.801708,196.374710 52.803211,208.897858 50.276825,221.536072 
	C47.171722,237.069305 44.804470,252.748581 41.975677,268.338867 
	C38.675072,286.529419 37.306847,304.887634 38.093487,323.311066 
	C39.149643,348.046509 43.496956,372.197479 55.146538,394.366913 
	C66.751648,416.451691 84.069740,433.057220 105.745537,445.368713 
	C130.948090,459.683411 158.578659,466.581085 186.452103,473.135956 
	C204.521683,477.385315 223.170471,480.024719 239.818832,489.055206 
	C242.666855,490.600037 244.963043,493.134369 247.641891,495.031219 
	C248.883881,495.910645 250.377777,496.627838 251.856842,496.926636 
	C253.457520,497.250061 255.177567,496.930237 256.839417,497.013519 
	C261.218201,497.233002 264.801605,496.819519 268.452393,493.144897 
	C275.565887,485.984955 285.467255,483.626587 294.917175,481.057343 
	C323.568726,473.267639 353.060486,468.676239 380.980774,458.069672 
	C400.789459,450.544617 419.014343,440.623779 434.603302,426.004822 
	C454.097717,407.723389 465.290436,385.180145 471.139832,359.360962 
	C475.464203,340.273315 476.848328,320.991547 475.771027,301.661346 
	C474.923004,286.444855 472.352844,271.290131 469.939606,256.205200 
	C467.722412,242.345627 464.081238,228.700607 462.159546,214.809982 
	C458.988342,191.887817 460.392578,169.477142 475.064789,150.102036 
	C484.390076,137.787689 496.758484,129.805206 512.588013,127.000000 
	C513.000000,255.622818 513.000000,384.245636 513.000000,512.934204 
	C342.435364,512.934204 171.870682,512.934204 1.000000,512.934204 
	C1.000000,384.645935 1.000000,256.291626 1.000000,127.468658 
z"/>
<path fill="#FFFFFF" opacity="1.000000" stroke="none" 
	d="
M513.000000,123.531342 
	C509.075226,118.548302 505.029602,113.179001 501.246155,107.630905 
	C482.902527,80.731377 464.580414,53.816750 446.398071,26.808252 
	C444.326019,23.730366 442.107361,23.591961 439.016022,24.419580 
	C420.722626,29.317106 402.493317,34.502056 384.058716,38.802700 
	C375.547394,40.788319 366.641113,41.281410 357.875214,41.920853 
	C348.486511,42.605732 339.018585,43.335243 329.644897,42.862213 
	C309.515564,41.846397 290.406403,37.115334 274.003021,24.509544 
	C273.872864,24.409504 273.751526,24.281971 273.665375,24.142921 
	C267.622711,14.388660 257.888092,17.255102 249.105713,17.098581 
	C247.895355,17.077011 246.403717,18.133474 245.477356,19.105484 
	C233.333572,31.847948 217.947540,38.430340 201.018066,40.777874 
	C188.182739,42.557686 175.014954,43.412769 162.091904,42.760803 
	C139.587494,41.625446 117.549179,36.814201 95.807381,30.920603 
	C88.703995,28.995071 81.763123,26.476038 74.717918,24.326801 
	C71.937096,23.478476 69.703148,23.730663 67.734535,26.648281 
	C50.597786,52.046204 33.284023,77.324654 16.034798,102.646736 
	C11.232515,109.696548 6.469981,116.773438 1.344606,123.918953 
	C1.000000,83.023659 1.000000,42.047321 1.000000,1.035491 
	C171.544510,1.035491 342.089020,1.035491 513.000000,1.035491 
	C513.000000,41.686829 513.000000,82.374756 513.000000,123.531342 
z"/>
<path fill="#FFFFFF" opacity="1.000000" stroke="none" 
	d="
M233.277740,445.694702 
	C219.806931,442.287842 206.626511,439.288879 193.531128,435.955780 
	C179.844391,432.472198 166.109833,429.084595 152.631149,424.898438 
	C135.253464,419.501343 119.010277,411.459900 105.647774,398.932281 
	C90.934174,385.138000 82.843613,367.596283 78.912773,347.866943 
	C75.858414,332.536713 75.499100,317.087158 76.166748,301.643555 
	C76.607697,291.443604 78.326294,281.258911 80.034286,271.162354 
	C83.133896,252.839630 87.283974,234.675278 89.833405,216.283722 
	C92.917221,194.037048 91.219284,171.932632 82.884338,150.841095 
	C77.018219,135.996902 67.780342,123.264084 55.689419,112.341675 
	C65.287048,98.215164 74.703850,84.191841 84.393921,70.359970 
	C85.300842,69.065414 88.113731,68.125664 89.737343,68.467331 
	C103.912468,71.450340 117.948219,75.131813 132.172272,77.831902 
	C140.015610,79.320763 148.131119,79.487633 156.141129,79.956978 
	C165.046463,80.478783 173.993210,81.233994 182.883591,80.891853 
	C207.883591,79.929771 231.858337,74.950409 253.460175,61.362339 
	C255.118896,60.318977 258.508850,60.162037 260.094025,61.168392 
	C270.927185,68.045982 282.637604,72.834152 294.985199,75.852310 
	C303.133820,77.844109 311.528870,79.102791 319.888885,79.880859 
	C329.088928,80.737106 338.445496,81.540733 347.608154,80.803886 
	C362.992798,79.566689 378.338501,77.467781 393.583984,75.008614 
	C404.040955,73.321861 414.270630,70.259193 424.680573,68.211472 
	C426.220398,67.908577 428.864685,69.346184 429.864258,70.772850 
	C439.390137,84.369186 448.671356,98.136925 457.930756,111.720299 
	C453.153778,117.455513 448.484406,123.124680 443.745911,128.735458 
	C436.886627,136.857422 432.501862,146.395645 429.139496,156.256317 
	C423.985504,171.371201 421.939056,187.163757 423.164307,203.059555 
	C424.110077,215.329208 426.355316,227.514786 428.359772,239.682236 
	C430.355011,251.793549 433.480804,263.757263 434.824036,275.927704 
	C436.552979,291.593018 438.017212,307.416321 437.760956,323.141663 
	C437.379547,346.547638 432.171967,368.952667 417.935852,388.345642 
	C410.081818,399.044769 399.721588,406.893402 388.248260,413.238617 
	C368.072571,424.396576 345.960327,429.824677 323.725677,435.143616 
	C302.223724,440.287354 280.166870,443.757263 259.995270,453.542328 
	C255.052597,455.939941 251.697357,451.924500 247.648590,450.864868 
	C242.866821,449.613434 238.277969,447.624847 233.277740,445.694702 
M349.617310,407.042938 
	C362.236084,403.605652 374.113129,398.404694 385.082733,391.334106 
	C394.673859,385.152100 402.346405,377.065918 407.674774,366.819489 
	C414.619812,353.464325 417.471405,338.905182 417.701660,324.273102 
	C417.970123,307.212860 416.861023,290.006836 414.734497,273.066803 
	C412.464661,254.985641 408.344330,237.134613 404.966736,219.195374 
	C401.985077,203.358871 402.459015,187.562363 404.948914,171.707947 
	C408.365448,149.953140 416.421967,130.278854 430.368622,113.122330 
	C432.276459,110.775406 433.040985,108.786102 430.553833,105.837822 
	C426.935272,101.548416 424.243256,96.489342 420.891327,91.954178 
	C420.117126,90.906677 418.258484,90.125175 416.919891,90.155342 
	C414.891327,90.201073 412.907104,91.224464 410.859253,91.556183 
	C393.265717,94.406013 375.745422,98.474274 358.037170,99.627090 
	C341.489166,100.704376 324.688965,99.250107 308.091003,97.837784 
	C291.622131,96.436432 275.971252,91.315437 261.301758,83.618141 
	C258.189697,81.985207 255.859116,81.935143 252.766403,83.581902 
	C233.790695,93.685806 213.166550,98.628075 191.996750,99.698196 
	C175.408157,100.536743 158.604111,99.445549 142.041412,97.771194 
	C127.127838,96.263557 112.422523,92.735168 97.592422,90.298462 
	C96.193703,90.068634 93.960915,90.814888 93.137070,91.890518 
	C89.411774,96.754349 86.063667,101.906395 82.557854,106.939407 
	C81.487267,108.476372 81.367699,109.508972 82.635216,111.402977 
	C87.984795,119.396698 93.617149,127.326233 97.851379,135.917343 
	C109.507057,159.566345 113.472626,184.755951 109.896454,210.851715 
	C107.393120,229.118881 103.739899,247.225525 100.898544,265.450378 
	C98.995186,277.658691 96.983833,289.906464 96.163376,302.212769 
	C95.189026,316.827301 95.866043,331.519714 99.050041,345.909851 
	C101.978714,359.146027 106.990654,371.424377 116.779861,381.307281 
	C128.332764,392.970764 142.528809,400.236694 157.924789,404.875031 
	C175.438278,410.151306 193.308502,414.233093 210.969452,419.033508 
	C225.050690,422.860931 239.038086,427.032684 253.101166,430.928772 
	C255.010498,431.457703 257.271210,431.830872 259.109344,431.327423 
	C273.179840,427.473694 287.126892,423.161865 301.227753,419.428314 
	C317.075623,415.232208 333.044189,411.492157 349.617310,407.042938 
z"/>
<path fill="#000000" opacity="1.000000" stroke="none" 
	d="
M349.288788,407.298340 
	C333.044189,411.492157 317.075623,415.232208 301.227753,419.428314 
	C287.126892,423.161865 273.179840,427.473694 259.109344,431.327423 
	C257.271210,431.830872 255.010498,431.457703 253.101166,430.928772 
	C239.038086,427.032684 225.050690,422.860931 210.969452,419.033508 
	C193.308502,414.233093 175.438278,410.151306 157.924789,404.875031 
	C142.528809,400.236694 128.332764,392.970764 116.779861,381.307281 
	C106.990654,371.424377 101.978714,359.146027 99.050041,345.909851 
	C95.866043,331.519714 95.189026,316.827301 96.163376,302.212769 
	C96.983833,289.906464 98.995186,277.658691 100.898544,265.450378 
	C103.739899,247.225525 107.393120,229.118881 109.896454,210.851715 
	C113.472626,184.755951 109.507057,159.566345 97.851379,135.917343 
	C93.617149,127.326233 87.984795,119.396698 82.635216,111.402977 
	C81.367699,109.508972 81.487267,108.476372 82.557854,106.939407 
	C86.063667,101.906395 89.411774,96.754349 93.137070,91.890518 
	C93.960915,90.814888 96.193703,90.068634 97.592422,90.298462 
	C112.422523,92.735168 127.127838,96.263557 142.041412,97.771194 
	C158.604111,99.445549 175.408157,100.536743 191.996750,99.698196 
	C213.166550,98.628075 233.790695,93.685806 252.766403,83.581902 
	C255.859116,81.935143 258.189697,81.985207 261.301758,83.618141 
	C275.971252,91.315437 291.622131,96.436432 308.091003,97.837784 
	C324.688965,99.250107 341.489166,100.704376 358.037170,99.627090 
	C375.745422,98.474274 393.265717,94.406013 410.859253,91.556183 
	C412.907104,91.224464 414.891327,90.201073 416.919891,90.155342 
	C418.258484,90.125175 420.117126,90.906677 420.891327,91.954178 
	C424.243256,96.489342 426.935272,101.548416 430.553833,105.837822 
	C433.040985,108.786102 432.276459,110.775406 430.368622,113.122330 
	C416.421967,130.278854 408.365448,149.953140 404.948914,171.707947 
	C402.459015,187.562363 401.985077,203.358871 404.966736,219.195374 
	C408.344330,237.134613 412.464661,254.985641 414.734497,273.066803 
	C416.861023,290.006836 417.970123,307.212860 417.701660,324.273102 
	C417.471405,338.905182 414.619812,353.464325 407.674774,366.819489 
	C402.346405,377.065918 394.673859,385.152100 385.082733,391.334106 
	C374.113129,398.404694 362.236084,403.605652 349.288788,407.298340 
z"/>
</svg>